HIERARCHY
ROOT joint_Root
{
	OFFSET 0.0 0.0 0.0
	CHANNELS 6 Xposition Yposition Zposition Zrotation Xrotation Yrotation 
	JOINT Hips
	{
		OFFSET 4.5925 91.4895 -427.239
		CHANNELS 6 Xposition Yposition Zposition Zrotation Xrotation Yrotation 
		JOINT Spine
		{
			OFFSET 15.7357 0.0 0.0
			CHANNELS 6 Xposition Yposition Zposition Zrotation Xrotation Yrotation 
			JOINT Chest
			{
				OFFSET 8.98455 -0.406207 0.0
				CHANNELS 6 Xposition Yposition Zposition Zrotation Xrotation Yrotation 
				JOINT Neck
				{
					OFFSET 16.3773 0.0 0.0
					CHANNELS 6 Xposition Yposition Zposition Zrotation Xrotation Yrotation 
					JOINT Head
					{
						OFFSET 6.45672 0.0 0.0
						CHANNELS 6 Xposition Yposition Zposition Zrotation Xrotation Yrotation 
						End Site
						{
							OFFSET 0.0 0.0 0.0
						}
					}
				}
				JOINT Shoulder_L
				{
					OFFSET 12.9942 -0.242716 4.98039
					CHANNELS 6 Xposition Yposition Zposition Zrotation Xrotation Yrotation 
					JOINT UpperArm_L
					{
						OFFSET 5.34809 0.0 0.0
						CHANNELS 6 Xposition Yposition Zposition Zrotation Xrotation Yrotation 
						JOINT LowerArm_L
						{
							OFFSET 24.3286 1.87007e-05 0.0
							CHANNELS 6 Xposition Yposition Zposition Zrotation Xrotation Yrotation 
							JOINT Hand_L
							{
								OFFSET 22.2916 0.0 0.0
								CHANNELS 6 Xposition Yposition Zposition Zrotation Xrotation Yrotation 
								End Site
								{
									OFFSET 0.0 0.0 0.0
								}
							}
						}
					}
				}
				JOINT Shoulder_R
				{
					OFFSET 12.9945 -0.242716 -4.98039
					CHANNELS 6 Xposition Yposition Zposition Zrotation Xrotation Yrotation 
					JOINT UpperArm_R
					{
						OFFSET -5.34813 0.0 0.0
						CHANNELS 6 Xposition Yposition Zposition Zrotation Xrotation Yrotation 
						JOINT LowerArm_R
						{
							OFFSET -24.3289 0.000322201 0.0
							CHANNELS 6 Xposition Yposition Zposition Zrotation Xrotation Yrotation 
							JOINT Hand_R
							{
								OFFSET -22.2915 -0.000108084 0.0
								CHANNELS 6 Xposition Yposition Zposition Zrotation Xrotation Yrotation 
								End Site
								{
									OFFSET 0.0 0.0 0.0
								}
							}
						}
					}
				}
			}
		}
		JOINT UpperLeg_L
		{
			OFFSET -2.19248 -6.46944 0.0
			CHANNELS 6 Xposition Yposition Zposition Zrotation Xrotation Yrotation 
			JOINT LowerLeg_L
			{
				OFFSET 39.0811 0.0 -1.23785e-05
				CHANNELS 6 Xposition Yposition Zposition Zrotation Xrotation Yrotation 
				JOINT Foot_L
				{
					OFFSET 40.9854 0.0 -1.26872e-05
					CHANNELS 6 Xposition Yposition Zposition Zrotation Xrotation Yrotation 
					JOINT Toes_L
					{
						OFFSET 11.7543 0.0 0.0
						CHANNELS 6 Xposition Yposition Zposition Zrotation Xrotation Yrotation 
						End Site
						{
							OFFSET 0.0 0.0 0.0
						}
					}
				}
			}
		}
		JOINT UpperLeg_R
		{
			OFFSET -2.19251 6.46944 0.0
			CHANNELS 6 Xposition Yposition Zposition Zrotation Xrotation Yrotation 
			JOINT LowerLeg_R
			{
				OFFSET -39.0811 -0.00228153 -0.0401928
				CHANNELS 6 Xposition Yposition Zposition Zrotation Xrotation Yrotation 
				JOINT Foot_R
				{
					OFFSET -40.9854 0.0 0.0
					CHANNELS 6 Xposition Yposition Zposition Zrotation Xrotation Yrotation 
					JOINT Toes_R
					{
						OFFSET -11.7543 0.0 0.0
						CHANNELS 6 Xposition Yposition Zposition Zrotation Xrotation Yrotation 
						End Site
						{
							OFFSET 0.0 0.0 0.0
						}
					}
				}
			}
		}
	}
}
MOTION
Frames:	4
Frame Time:	0.0333333
0.000000 0.000000 0.000000 0.000000 0.000000 -0.000000 134.175000 88.787500 -18.882500 87.168400 8.043600 -3.100110 15.735700 0.000005 -0.000001 54.859600 84.623100 -53.381200 8.984550 -0.406207 -0.000000 1.118750 -6.272810 3.017990 16.377300 -0.000001 -0.000001 -2.447990 -5.721650 0.971284 6.456720 -0.000001 -0.000000 -10.710400 -2.697720 -2.423650 12.994200 -0.242716 4.980390 -90.708300 2.925340 -76.382300 5.348090 -0.000007 -0.000001 -51.694000 19.212900 -37.361900 24.328600 0.000019 0.000005 11.600200 11.872500 -44.936400 22.291600 -0.000001 0.000005 16.044700 5.258630 1.203690 12.994500 -0.242716 -4.980390 88.081000 8.538550 -77.283200 -5.348130 -0.000001 -0.000004 -68.067500 19.270800 6.549300 -24.328900 0.000322 -0.000009 1.218440 5.316130 -12.939900 -22.291500 -0.000108 -0.000004 11.877100 5.299180 0.095378 -2.192480 -6.469440 -0.000000 -175.662000 -3.922750 5.081150 39.081100 -0.000007 -0.000012 0.009442 -0.016459 29.840600 40.985400 -0.000006 -0.000013 6.763470 10.479900 -71.644600 11.754300 -0.000000 0.000003 -0.056661 -0.320778 -29.812500 -2.192510 6.469440 -0.000001 -171.690000 9.292200 147.120000 -39.081100 -0.002282 -0.040193 0.021077 -0.024089 36.445700 -40.985400 0.000008 0.000006 6.801660 2.799820 -61.489000 -11.754300 -0.000006 -0.000006 -0.024673 -0.191918 -24.424200
0.000000 0.000000 0.000000 0.000000 0.000000 -0.000000 134.345000 87.669000 -14.328000 87.317300 9.146340 -2.769710 15.735700 0.000005 -0.000001 53.243700 84.432000 -51.564700 8.984550 -0.406207 -0.000000 1.267650 -6.756140 3.433050 16.377300 -0.000001 -0.000001 -2.373360 -5.687740 1.137670 6.456720 -0.000001 -0.000000 -11.133800 -2.723000 -1.594050 12.994200 -0.242716 4.980390 -90.733400 3.026010 -76.368700 5.348090 -0.000007 -0.000001 -50.692600 19.272100 -38.022200 24.328600 0.000019 0.000005 12.581400 10.661900 -50.342500 22.291600 -0.000001 0.000005 16.812500 5.267880 0.955480 12.994500 -0.242716 -4.980390 87.957400 9.019270 -77.183200 -5.348130 -0.000001 -0.000004 -66.999500 20.539500 5.136730 -24.328900 0.000322 -0.000009 1.175820 4.922690 -13.463300 -22.291500 -0.000108 -0.000004 11.754500 5.301170 0.039508 -2.192480 -6.469440 -0.000000 -174.533000 -4.156760 6.827470 39.081100 -0.000007 -0.000012 0.007133 -0.011245 32.385500 40.985400 -0.000006 -0.000013 6.494350 12.469800 -70.481500 11.754300 -0.000000 0.000003 -0.107137 -0.461939 -35.893200 -2.192510 6.469440 -0.000001 -171.160000 8.780650 145.587000 -39.081100 -0.002282 -0.040193 0.050128 -0.052611 41.687400 -40.985400 0.000008 0.000006 11.897400 1.874650 -60.759200 -11.754300 -0.000006 -0.000006 -0.008523 -0.092246 -20.330000
0.000000 0.000000 0.000000 0.000000 0.000000 -0.000000 134.677000 86.370500 -9.088210 87.785400 10.839200 -1.357060 15.735700 0.000005 -0.000001 52.110600 84.004600 -50.347100 8.984550 -0.406207 -0.000000 1.830140 -7.451070 3.646900 16.377300 -0.000001 -0.000001 -2.143220 -6.069480 1.229870 6.456720 -0.000001 -0.000000 -10.951100 -3.034980 -1.119330 12.994200 -0.242716 4.980390 -90.791400 3.267470 -76.376600 5.348090 -0.000007 -0.000001 -49.806400 20.258200 -37.694000 24.328600 0.000019 0.000005 13.584300 9.674030 -55.183300 22.291600 -0.000001 0.000005 17.478000 5.272600 0.827845 12.994500 -0.242716 -4.980390 87.639300 9.936250 -76.563400 -5.348130 -0.000001 -0.000004 -65.363600 22.276700 3.310980 -24.328900 0.000322 -0.000009 1.074520 4.532350 -13.364600 -22.291500 -0.000108 -0.000004 11.623100 5.308600 -0.170189 -2.192480 -6.469440 -0.000000 -173.569000 -3.624260 8.183510 39.081100 -0.000007 -0.000012 0.010990 -0.014275 37.588600 40.985400 -0.000006 -0.000013 5.704910 14.197800 -66.576000 11.754300 -0.000000 0.000003 -0.200938 -0.646670 -44.300600 -2.192510 6.469440 -0.000001 -172.624000 6.791950 147.372000 -39.081100 -0.002282 -0.040193 0.073821 -0.061325 49.009100 -40.985400 0.000008 0.000006 10.543200 -2.602860 -67.805900 -11.754300 -0.000006 -0.000006 -0.005423 -0.065499 -19.238400
0.000000 0.000000 0.000000 0.000000 0.000000 -0.000000 134.936000 85.475800 -3.954840 87.740600 12.357400 0.688737 15.735700 0.000005 -0.000001 54.005100 83.530900 -51.953700 8.984550 -0.406207 -0.000000 2.865960 -7.684650 4.295910 16.377300 -0.000001 -0.000001 -1.759270 -6.785840 1.420630 6.456720 -0.000001 -0.000000 -11.130400 -3.567450 -0.902521 12.994200 -0.242716 4.980390 -90.938000 3.920230 -76.532000 5.348090 -0.000007 -0.000001 -49.752000 21.964700 -36.419400 24.328600 0.000019 0.000005 15.418000 9.574070 -58.905000 22.291600 -0.000001 0.000005 17.618800 5.289220 0.372417 12.994500 -0.242716 -4.980390 87.150700 11.232300 -75.667100 -5.348130 -0.000001 -0.000004 -62.933800 23.163800 0.729041 -24.328900 0.000322 -0.000009 1.143260 4.923330 -13.102200 -22.291500 -0.000108 -0.000004 11.467800 5.303580 -0.028408 -2.192480 -6.469440 -0.000000 -172.139000 -2.882510 6.856590 39.081100 -0.000007 -0.000012 0.022748 -0.021641 46.424300 40.985400 -0.000006 -0.000013 3.102690 15.172900 -58.003400 11.754300 -0.000000 0.000003 -0.231601 -0.695196 -46.628100 -2.192510 6.469440 -0.000001 -172.571000 7.337060 151.419000 -39.081100 -0.002282 -0.040193 0.107998 -0.079740 52.723100 -40.985400 0.000008 0.000006 10.964700 -4.904490 -73.255500 -11.754300 -0.000006 -0.000006 -0.402779 -0.499000 -17.721200
